<svg width="512" height="512" viewBox="0 0 512 512" fill="none" xmlns="http://www.w3.org/2000/svg">
<rect width="512" height="512" fill="white"/>
<path d="M205.982 111C205.982 102.687 199.296 96 190.986 96C182.675 96 175.99 102.687 175.99 111V156H165.992C149.434 156 136 169.438 136 186V283.563C136 291.5 139.187 299.125 144.81 304.75L147.247 307.187C152.871 312.812 156.057 320.437 156.057 328.375L155.995 386C155.995 402.562 169.429 416 185.987 416H325.951C342.509 416 355.943 402.562 355.943 386V328.437C355.943 320.5 359.129 312.875 364.753 307.25L367.19 304.813C372.813 299.188 376 291.563 376 283.625L375.938 186C375.938 169.438 362.504 156 345.945 156H335.948C335.948 144.937 327.013 136 315.953 136C304.894 136 295.958 144.937 295.958 156H275.964C275.964 144.937 267.028 136 255.969 136C244.909 136 235.974 144.937 235.974 156H205.982V111ZM205.982 196H305.956C311.454 196 315.953 200.5 315.953 206C315.953 211.5 311.454 216 305.956 216H205.982C200.483 216 195.984 211.5 195.984 206C195.984 200.5 200.483 196 205.982 196ZM205.982 236H305.956C311.454 236 315.953 240.5 315.953 246C315.953 251.5 311.454 256 305.956 256H205.982C200.483 256 195.984 251.5 195.984 246C195.984 240.5 200.483 236 205.982 236ZM205.982 276H305.956C311.454 276 315.953 280.5 315.953 286C315.953 291.5 311.454 296 305.956 296H205.982C200.483 296 195.984 291.5 195.984 286C195.984 280.5 200.483 276 205.982 276Z" fill="#348DE9"/>
</svg>
